<?xml version="1.0" encoding="UTF-8"?>
<svg id="Layer_1" data-name="Layer 1" xmlns="http://www.w3.org/2000/svg" viewBox="0 0 972 299.26">
  <g>
    <path d="M.5,141.7V2.99H83.16V20.21H18.68V61.53h60.65v17.22H18.68v45.73H83.16v17.22H.5Z" style="fill: #fff; stroke: #231f20; stroke-miterlimit: 10;"/>
    <path d="M140.17,76.27c-10.08-2.17-18.43-6.41-25.06-12.72-6.63-6.31-9.95-14.64-9.95-24.97,0-11.61,4.37-20.85,13.11-27.74C127,3.94,137.81,.5,150.69,.5c11.73,0,22,3.29,30.8,9.85,8.8,6.57,13.9,16.3,15.31,29.18h-17.98c-1.02-7.65-4.31-13.26-9.85-16.84-5.55-3.57-11.96-5.36-19.23-5.36s-13.08,1.75-18.18,5.26c-5.1,3.51-7.65,8.64-7.65,15.4,0,10.71,6.7,17.6,20.09,20.66l13.78,3.06c13.01,2.94,23.25,7.49,30.71,13.68,7.46,6.19,11.19,15.34,11.19,27.46s-4.4,22.67-13.2,30.13-20.03,11.19-33.67,11.19-25.86-4.18-35.11-12.53c-9.25-8.35-14.25-19.42-15.02-33.2h17.99c.89,9.18,4.31,16.3,10.24,21.33,5.93,5.04,13.42,7.56,22.48,7.56,7.52,0,14.06-2.01,19.61-6.03,5.55-4.02,8.32-9.73,8.32-17.12,0-12.25-8.68-20.34-26.02-24.3l-15.12-3.64Z" style="fill: #fff; stroke: #231f20; stroke-miterlimit: 10;"/>
    <path d="M250.38,76.27c-10.08-2.17-18.43-6.41-25.06-12.72-6.63-6.31-9.95-14.64-9.95-24.97,0-11.61,4.37-20.85,13.11-27.74,8.74-6.89,19.55-10.33,32.43-10.33,11.73,0,22,3.29,30.8,9.85,8.8,6.57,13.9,16.3,15.31,29.18h-17.98c-1.02-7.65-4.31-13.26-9.85-16.84-5.55-3.57-11.96-5.36-19.23-5.36s-13.08,1.75-18.18,5.26c-5.1,3.51-7.65,8.64-7.65,15.4,0,10.71,6.7,17.6,20.09,20.66l13.78,3.06c13.01,2.94,23.25,7.49,30.71,13.68,7.46,6.19,11.19,15.34,11.19,27.46s-4.4,22.67-13.2,30.13-20.03,11.19-33.67,11.19-25.86-4.18-35.11-12.53c-9.25-8.35-14.25-19.42-15.02-33.2h17.99c.89,9.18,4.31,16.3,10.24,21.33,5.93,5.04,13.42,7.56,22.48,7.56,7.52,0,14.06-2.01,19.61-6.03,5.55-4.02,8.32-9.73,8.32-17.12,0-12.25-8.68-20.34-26.02-24.3l-15.12-3.64Z" style="fill: #fff; stroke: #231f20; stroke-miterlimit: 10;"/>
    <path d="M331.31,141.7V2.99h82.66V20.21h-64.48V61.53h60.65v17.22h-60.65v45.73h64.48v17.22h-82.66Z" style="fill: #fff; stroke: #231f20; stroke-miterlimit: 10;"/>
    <path d="M526.85,141.7h-27.17l-44.39-118.43v118.43h-18.18V2.99h27.17l44.39,118.05V2.99h18.18V141.7Z" style="fill: #fff; stroke: #231f20; stroke-miterlimit: 10;"/>
    <path d="M583.1,141.7V20.21h-41.71V2.99h101.6V20.21h-41.71v121.5h-18.18Z" style="fill: #fff; stroke: #231f20; stroke-miterlimit: 10;"/>
    <path d="M658.49,20.21V2.99h88.2V20.21h-35.01V124.48h35.01v17.22h-88.2v-17.22h35.01V20.21h-35.01Z" style="fill: #fff; stroke: #231f20; stroke-miterlimit: 10;"/>
    <path d="M822.65,2.99l45.54,138.72h-19.52l-9.38-29.66h-53l-9.18,29.66h-19.52L803.13,2.99h19.52Zm-9.76,24.3l-21.24,67.73h42.28l-21.05-67.73Z" style="fill: #fff; stroke: #231f20; stroke-miterlimit: 10;"/>
    <path d="M903.39,2.99V124.48h68.11v17.22h-86.29V2.99h18.18Z" style="fill: #fff; stroke: #231f20; stroke-miterlimit: 10;"/>
  </g>
  <g>
    <path d="M50.05,296.27v-121.5H8.34v-17.22H109.94v17.22h-41.71v121.5h-18.18Z" style="fill: #fff; stroke: #231f20; stroke-miterlimit: 10;"/>
    <path d="M230.29,296.27l-27.17-58.55c-2.17,.13-5.55,.19-10.14,.19h-15.69v58.36h-18.18V157.56h33.87c8.29,0,15.4,.54,21.33,1.63,5.93,1.09,11.48,3,16.65,5.74,5.17,2.74,9.06,6.79,11.67,12.15,2.61,5.36,3.92,12.05,3.92,20.09,0,19.52-8.36,31.89-25.06,37.12l29.46,61.99h-20.66Zm-35.21-121.5h-17.79v45.92h17.79c5.36,0,9.69-.22,13.01-.67,3.32-.45,6.66-1.4,10.04-2.87,3.38-1.47,5.84-3.83,7.37-7.08,1.53-3.25,2.3-7.43,2.3-12.53,0-4.21-.57-7.75-1.72-10.62-1.15-2.87-2.58-5.1-4.31-6.7-1.72-1.59-4.15-2.8-7.27-3.64-3.13-.83-6.06-1.34-8.8-1.53-2.74-.19-6.28-.29-10.62-.29Z" style="fill: #fff; stroke: #231f20; stroke-miterlimit: 10;"/>
    <path d="M300.31,296.27V157.56h82.66v17.22h-64.48v41.33h60.65v17.22h-60.65v45.73h64.48v17.22h-82.66Z" style="fill: #fff; stroke: #231f20; stroke-miterlimit: 10;"/>
    <path d="M490.5,248.44h-18.37l-20.28-73.09v120.92h-18.18V157.56h28.51l19.13,70.98,19.13-70.98h28.51v138.72h-18.18v-120.92l-20.28,73.09Z" style="fill: #fff; stroke: #231f20; stroke-miterlimit: 10;"/>
    <path d="M583.58,174.68c8.86-13.07,21.72-19.61,38.55-19.61s29.69,6.54,38.55,19.61c8.86,13.08,13.3,30.45,13.3,52.14s-4.43,39.1-13.3,52.23c-8.87,13.14-21.72,19.71-38.55,19.71s-29.69-6.57-38.55-19.71c-8.87-13.14-13.3-30.55-13.3-52.23s4.43-39.06,13.3-52.14Zm38.55-2.77c-22.07,0-33.1,18.31-33.1,54.91s11.03,55.1,33.1,55.1,33.1-18.37,33.1-55.1-11.03-54.91-33.1-54.91Z" style="fill: #fff; stroke: #231f20; stroke-miterlimit: 10;"/>
    <path d="M793.18,296.27l-27.17-58.55c-2.17,.13-5.55,.19-10.14,.19h-15.69v58.36h-18.18V157.56h33.87c8.29,0,15.4,.54,21.33,1.63,5.93,1.09,11.48,3,16.65,5.74,5.17,2.74,9.06,6.79,11.67,12.15,2.61,5.36,3.92,12.05,3.92,20.09,0,19.52-8.36,31.89-25.06,37.12l29.46,61.99h-20.66Zm-35.21-121.5h-17.79v45.92h17.79c5.36,0,9.69-.22,13.01-.67,3.32-.45,6.66-1.4,10.04-2.87,3.38-1.47,5.84-3.83,7.37-7.08,1.53-3.25,2.3-7.43,2.3-12.53,0-4.21-.57-7.75-1.72-10.62-1.15-2.87-2.58-5.1-4.3-6.7-1.72-1.59-4.15-2.8-7.27-3.64-3.13-.83-6.06-1.34-8.8-1.53-2.74-.19-6.28-.29-10.62-.29Z" style="fill: #fff; stroke: #231f20; stroke-miterlimit: 10;"/>
    <path d="M892.48,230.84c-10.08-2.17-18.43-6.41-25.06-12.72-6.63-6.31-9.95-14.64-9.95-24.97,0-11.61,4.37-20.85,13.11-27.74,8.74-6.89,19.54-10.33,32.43-10.33,11.73,0,22,3.29,30.8,9.85,8.8,6.57,13.9,16.3,15.31,29.18h-17.99c-1.02-7.65-4.3-13.27-9.85-16.84-5.55-3.57-11.96-5.36-19.23-5.36s-13.08,1.75-18.18,5.26c-5.1,3.51-7.65,8.64-7.65,15.4,0,10.71,6.7,17.6,20.09,20.66l13.78,3.06c13.01,2.94,23.25,7.5,30.71,13.68,7.46,6.19,11.19,15.34,11.19,27.46s-4.4,22.67-13.2,30.13c-8.8,7.46-20.03,11.19-33.67,11.19s-25.86-4.18-35.11-12.53c-9.25-8.35-14.25-19.42-15.02-33.2h17.99c.89,9.18,4.3,16.3,10.24,21.33,5.93,5.04,13.42,7.56,22.48,7.56,7.52,0,14.06-2.01,19.61-6.03,5.55-4.02,8.32-9.72,8.32-17.12,0-12.25-8.68-20.34-26.02-24.3l-15.12-3.64Z" style="fill: #fff; stroke: #231f20; stroke-miterlimit: 10;"/>
  </g>
</svg>